HIERARCHY
ROOT hip
{
  OFFSET 0 0 0
  CHANNELS 6 Xposition Yposition Zposition Zrotation Yrotation Xrotation
  JOINT abdomen
  {
    OFFSET 0 20.6881 -0.73152
    CHANNELS 3 Zrotation Xrotation Yrotation
    JOINT chest
    {
      OFFSET 0 11.7043 -0.48768
      CHANNELS 3 Zrotation Xrotation Yrotation
      JOINT neck
      {
        OFFSET 0 22.1894 -2.19456
        CHANNELS 3 Zrotation Xrotation Yrotation
        JOINT head
        {
          OFFSET -0.24384 7.07133 1.2192
          CHANNELS 3 Zrotation Xrotation Yrotation
          JOINT leftEye
          {
            OFFSET 4.14528 8.04674 8.04672
            CHANNELS 3 Zrotation Xrotation Yrotation
            End Site
            {
              OFFSET 1 0 0
            }
          }
          JOINT rightEye
          {
            OFFSET -3.6576 8.04674 8.04672
            CHANNELS 3 Zrotation Xrotation Yrotation
            End Site
            {
              OFFSET 1 0 0
            }
          }
        }
      }
      JOINT rCollar
      {
        OFFSET -2.68224 19.2634 -4.8768
        CHANNELS 3 Zrotation Xrotation Yrotation
        JOINT rShldr
        {
          OFFSET -8.77824 -1.95073 1.46304
          CHANNELS 3 Zrotation Xrotation Yrotation
          JOINT rForeArm
          {
            OFFSET -28.1742 -1.7115 0.48768
            CHANNELS 3 Zrotation Xrotation Yrotation
            JOINT rHand
            {
              OFFSET -22.5879 0.773209 7.07136
              CHANNELS 3 Zrotation Xrotation Yrotation
              JOINT rThumb1
              {
                OFFSET -1.2192 -0.487915 3.41376
                CHANNELS 3 Zrotation Xrotation Yrotation
                JOINT rThumb2
                {
                  OFFSET -3.37035 -0.52449 3.41376
                  CHANNELS 3 Zrotation Xrotation Yrotation
                  End Site
                  {
                    OFFSET -1.78271 -1.18214 1.43049
                  }
                }
              }
              JOINT rIndex1
              {
                OFFSET -7.75947 0.938293 5.60832
                CHANNELS 3 Zrotation Xrotation Yrotation
                JOINT rIndex2
                {
                  OFFSET -2.54057 -0.884171 1.56538
                  CHANNELS 3 Zrotation Xrotation Yrotation
                  End Site
                  {
                    OFFSET -1.62519 -0.234802 1.16502
                  }
                }
              }
              JOINT rMid1
              {
                OFFSET -8.24714 1.18213 3.41376
                CHANNELS 3 Zrotation Xrotation Yrotation
                JOINT rMid2
                {
                  OFFSET -3.10165 -0.590103 1.0647
                  CHANNELS 3 Zrotation Xrotation Yrotation
                  End Site
                  {
                    OFFSET -2.48547 -0.328903 0.83742
                  }
                }
              }
              JOINT rRing1
              {
                OFFSET -8.82822 0.546677 1.51678
                CHANNELS 3 Zrotation Xrotation Yrotation
                JOINT rRing2
                {
                  OFFSET -2.60934 -0.819778 -0.0198488
                  CHANNELS 3 Zrotation Xrotation Yrotation
                  End Site
                  {
                    OFFSET -2.33842 -0.294052 0.168128
                  }
                }
              }
              JOINT rPinky1
              {
                OFFSET -8.27202 -0.0477905 -0.4584
                CHANNELS 3 Zrotation Xrotation Yrotation
                JOINT rPinky2
                {
                  OFFSET -1.82734 -0.647385 -0.700984
                  CHANNELS 3 Zrotation Xrotation Yrotation
                  End Site
                  {
                    OFFSET -1.69225 -0.51767 -0.607171
                  }
                }
              }
            }
          }
        }
      }
      JOINT lCollar
      {
        OFFSET 2.68224 19.2634 -4.8768
        CHANNELS 3 Zrotation Xrotation Yrotation
        JOINT lShldr
        {
          OFFSET 8.77824 -1.95073 1.46304
          CHANNELS 3 Zrotation Xrotation Yrotation
          JOINT lForeArm
          {
            OFFSET 28.1742 -1.7115 0.48768
            CHANNELS 3 Zrotation Xrotation Yrotation
            JOINT lHand
            {
              OFFSET 22.5879 0.773209 7.07136
              CHANNELS 3 Zrotation Xrotation Yrotation
              JOINT lThumb1
              {
                OFFSET 1.2192 -0.487915 3.41376
                CHANNELS 3 Zrotation Xrotation Yrotation
                JOINT lThumb2
                {
                  OFFSET 3.37035 -0.52449 3.41376
                  CHANNELS 3 Zrotation Xrotation Yrotation
                  End Site
                  {
                    OFFSET 1.78271 -1.18214 1.43049
                  }
                }
              }
              JOINT lIndex1
              {
                OFFSET 7.75947 0.938293 5.60832
                CHANNELS 3 Zrotation Xrotation Yrotation
                JOINT lIndex2
                {
                  OFFSET 2.54057 -0.884171 1.56538
                  CHANNELS 3 Zrotation Xrotation Yrotation
                  End Site
                  {
                    OFFSET 1.62519 -0.234802 1.16502
                  }
                }
              }
              JOINT lMid1
              {
                OFFSET 8.24714 1.18213 3.41376
                CHANNELS 3 Zrotation Xrotation Yrotation
                JOINT lMid2
                {
                  OFFSET 3.10165 -0.590103 1.0647
                  CHANNELS 3 Zrotation Xrotation Yrotation
                  End Site
                  {
                    OFFSET 2.48547 -0.328903 0.83742
                  }
                }
              }
              JOINT lRing1
              {
                OFFSET 8.82822 0.546677 1.51678
                CHANNELS 3 Zrotation Xrotation Yrotation
                JOINT lRing2
                {
                  OFFSET 2.60934 -0.819778 -0.0198488
                  CHANNELS 3 Zrotation Xrotation Yrotation
                  End Site
                  {
                    OFFSET 2.33842 -0.294052 0.168128
                  }
                }
              }
              JOINT lPinky1
              {
                OFFSET 8.27202 -0.0477905 -0.4584
                CHANNELS 3 Zrotation Xrotation Yrotation
                JOINT lPinky2
                {
                  OFFSET 1.82734 -0.647385 -0.700984
                  CHANNELS 3 Zrotation Xrotation Yrotation
                  End Site
                  {
                    OFFSET 1.69225 -0.51767 -0.607171
                  }
                }
              }
            }
          }
        }
      }
    }
  }
  JOINT rButtock
  {
    OFFSET -8.77824 4.35084 1.2192
    CHANNELS 3 Zrotation Xrotation Yrotation
    JOINT rThigh
    {
      OFFSET 0 -1.70687 -2.19456
      CHANNELS 3 Zrotation Xrotation Yrotation
      JOINT rShin
      {
        OFFSET 0 -36.8199 0.73152
        CHANNELS 3 Zrotation Xrotation Yrotation
        JOINT rFoot
        {
          OFFSET 0.73152 -45.1104 -5.12064
          CHANNELS 3 Zrotation Xrotation Yrotation
          End Site
          {
            OFFSET -1.1221 -3.69964 12.103
          }
        }
      }
    }
  }
  JOINT lButtock
  {
    OFFSET 8.77824 4.35084 1.2192
    CHANNELS 3 Zrotation Xrotation Yrotation
    JOINT lThigh
    {
      OFFSET 0 -1.70687 -2.19456
      CHANNELS 3 Zrotation Xrotation Yrotation
      JOINT lShin
      {
        OFFSET 0 -36.8199 0.73152
        CHANNELS 3 Zrotation Xrotation Yrotation
        JOINT lFoot
        {
          OFFSET -0.73152 -45.1104 -5.12064
          CHANNELS 3 Zrotation Xrotation Yrotation
          End Site
          {
            OFFSET 1.1221 -3.69964 12.103
          }
        }
      }
    }
  }
}
MOTION
Frames:	4
Frame Time:	0.03333
1.8270200490951538 73.22660064697266 0.15399999916553497 327.26999044418335 77.8467983007431 325.600004196167 4.708909951150417 15.894899368286133 14.136700630187988 -2.752820011228323 -9.885800331830978 3.9303800091147423 -5.00328004360199 11.241500079631805 -1.3017799705266953 7.782550156116486 -20.406299829483032 -0.6510429969057441 0.0 0.0 0.0 0.0 0.0 0.0 0.0 0.0 0.0 8.81906971335411 1.3664699904620647 66.1573988199234 -26.501198709011078 -24.795300364494324 58.95470201969147 -3.4593499079346657 -45.531699657440186 -8.231539875268936 -1.6054357843131584e-09 -3.141167326248251e-09 -2.8342128643998876e-09 -2.6628299565345515e-09 -5.530296220968012e-09 -4.931735020363703e-09 -1.6054357843131584e-09 -3.141167326248251e-09 -2.8342128643998876e-09 7.7309102565050125 5.474880114197731 0.41731400415301323 -1.6054357843131584e-09 -3.141167326248251e-09 -2.8342128643998876e-09 2.905540131032467 0.9651830233633518 0.102901995414868 -1.6054357843131584e-09 -3.141167326248251e-09 -2.8342128643998876e-09 10.27859978377819 0.7318009994924068 0.025912300043273717 -1.6054357843131584e-09 -3.141167326248251e-09 -2.8342128643998876e-09 2.221670038998127 -0.733487019315362 -0.2089200052432716 0.0 0.0 0.0 -50.222598910331726 55.754998326301575 -36.857500076293945 27.46480107307434 -42.625700533390045 -88.7707006931305 0.9124279953539371 26.060900688171387 -3.941119909286499 1.254996107036277e-09 1.488729139964562e-09 -2.1896084945183247e-09 2.1368506963881373e-09 2.5579538487363607e-09 -3.806235326919705e-09 1.254996107036277e-09 1.488729139964562e-09 -2.1896084945183247e-09 -7.7309102565050125 5.474880114197731 -0.41731400415301323 1.254996107036277e-09 1.488729139964562e-09 -2.1896084945183247e-09 -2.905540131032467 0.9651830233633518 -0.102901995414868 1.254996107036277e-09 1.488729139964562e-09 -2.1896084945183247e-09 -10.27859978377819 0.7318009994924068 -0.025912300043273717 1.254996107036277e-09 1.488729139964562e-09 -2.1896084945183247e-09 -2.221670038998127 -0.733487019315362 0.2089200052432716 0.0 0.0 0.0 -3.5274699702858925 -25.03319889307022 -17.289500534534454 -0.8771120198071003 57.380497455596924 1.5081600286066532 -9.662450104951859 -9.943139925599098 -26.137300729751587 0.0 0.0 0.0 24.325801134109497 -55.28739809989929 15.449600368738174 0.8143629971891642 53.318501114845276 -0.6973719969391823 0.2584539935924113 14.10819947719574 0.8148160390555859
3.7872300148010254 73.27629852294922 0.3799999952316284 331.9990038871765 76.50110185146332 330.1699948310852 4.4415198639035225 15.382299721240997 12.892399728298187 -2.4471700564026833 -9.754439815878868 3.581809848546982 -4.614420086145401 11.375799626111984 -0.4390380112454295 7.5909096747636795 -19.963900297880173 0.9592899587005377 0.0 0.0 0.0 0.0 0.0 0.0 0.0 -5.115907697472721e-12 0.0 11.283900439739227 6.660969704389572 66.49479925632477 -28.19929987192154 -31.225301027297974 68.0661016702652 -3.7095698341727257 -46.38059735298157 -8.525619953870773 -2.2887292061568587e-09 -2.716546987358015e-09 -2.3226220946526155e-09 -3.863789288516273e-09 -4.788489604834467e-09 -4.062030711793341e-09 -2.2887292061568587e-09 -2.716546987358015e-09 -2.3226220946526155e-09 7.7309102565050125 5.474880114197731 0.41731400415301323 -2.2887292061568587e-09 -2.716546987358015e-09 -2.3226220946526155e-09 2.905540131032467 0.9651830233633518 0.102901995414868 -2.2887292061568587e-09 -2.716546987358015e-09 -2.3226220946526155e-09 10.27859978377819 0.7318009994924068 0.025912300043273717 -2.2887292061568587e-09 -2.716546987358015e-09 -2.3226220946526155e-09 2.221670038998127 -0.733487019315362 -0.2089200052432716 0.0 -5.115907697472721e-12 0.0 -45.8213996887207 48.536497950553894 -43.42200011014938 27.436900734901428 -41.85280054807663 -88.37989747524261 0.8076940197497606 24.535099267959595 -3.6817999184131622 1.0877698741751374e-09 1.0896883395616896e-09 -1.50407686305698e-09 1.8602719364935183e-09 1.8826540326699615e-09 -2.6193447411060333e-09 1.0877698741751374e-09 1.0896883395616896e-09 -1.50407686305698e-09 -7.7309102565050125 5.474880114197731 -0.41731400415301323 1.0877698741751374e-09 1.0896883395616896e-09 -1.50407686305698e-09 -2.905540131032467 0.9651830233633518 -0.102901995414868 1.0877698741751374e-09 1.0896883395616896e-09 -1.50407686305698e-09 -10.27859978377819 0.7318009994924068 -0.025912300043273717 1.0877698741751374e-09 1.0896883395616896e-09 -1.50407686305698e-09 -2.221670038998127 -0.733487019315362 0.2089200052432716 0.0 0.0 0.0 -3.2345398887991905 -23.662600815296173 -15.698699802160263 -0.8652910217642784 57.008399963378906 1.460769921541214 -10.059099867939949 -10.069600045681 -26.69790118932724 0.0 0.0 0.0 23.848700523376465 -54.596198201179504 14.711299538612366 0.6280159810557961 48.097001910209656 -0.398297980427742 0.5228070029988885 17.770299911499023 -0.7868749648332596
5.855329990386963 73.36239624023438 0.6419999897480011 334.81500148773193 75.21650075912476 332.6900053024292 4.061490073800087 14.711400121450424 11.540200263261795 -2.1292300522327423 -9.445629715919495 3.1990398466587067 -4.251709990203381 11.468200385570526 0.36366001702845097 7.69940972328186 -19.313700646162033 2.497659958899021 0.0 0.0 0.0 0.0 0.0 0.0 0.0 -5.115907697472721e-12 0.0 14.059899598360062 13.77599984407425 65.9799975156784 -28.400900065898895 -36.9980987906456 78.69230031967163 -3.1560299545526505 -44.002499878406525 -7.80086025595665 -2.277218413837545e-09 -1.8826540326699615e-09 -1.2073542166035622e-09 -3.886171384692716e-09 -3.325340003357269e-09 -2.1589130483334884e-09 -2.277218413837545e-09 -1.8826540326699615e-09 -1.2073542166035622e-09 7.7309102565050125 5.474880114197731 0.41731400415301323 -2.277218413837545e-09 -1.8826540326699615e-09 -1.2073542166035622e-09 2.905540131032467 0.9651830233633518 0.102901995414868 -2.277218413837545e-09 -1.8826540326699615e-09 -1.2073542166035622e-09 10.27859978377819 0.7318009994924068 0.025912300043273717 -2.277218413837545e-09 -1.8826540326699615e-09 -1.2073542166035622e-09 2.221670038998127 -0.733487019315362 -0.2089200052432716 0.0 -5.115907697472721e-12 0.0 -43.228500187397 40.4598006606102 -48.76789748668671 28.01200121641159 -40.350900292396545 -84.55270171165466 0.7302230224013329 23.519199192523956 -3.5066798329353333 1.426059270670521e-10 1.432454155292362e-10 -3.4788172342814505e-10 2.474820348652429e-10 2.455635694786906e-10 -5.934452929068357e-10 1.426059270670521e-10 1.432454155292362e-10 -3.4788172342814505e-10 -7.7309102565050125 5.474880114197731 -0.41731400415301323 1.426059270670521e-10 1.432454155292362e-10 -3.4788172342814505e-10 -2.905540131032467 0.9651830233633518 -0.102901995414868 1.426059270670521e-10 1.432454155292362e-10 -3.4788172342814505e-10 -10.27859978377819 0.7318009994924068 -0.025912300043273717 1.426059270670521e-10 1.432454155292362e-10 -3.4788172342814505e-10 -2.221670038998127 -0.733487019315362 0.2089200052432716 0.0 0.0 0.0 -3.176959902048111 -21.923599988222122 -14.704899787902832 -0.844594007357955 56.47620141506195 1.4127499982714653 -10.489200130105019 -10.50220012664795 -26.981799602508545 0.0 0.0 0.0 23.48850131034851 -53.4119975566864 13.779599368572235 0.4904239811003208 42.912501096725464 -0.13801300199702382 0.8110399916768074 21.709999591112137 -1.6896500252187252
7.980329990386963 73.40640258789062 0.9079999923706055 336.2339973449707 74.09450054168701 333.65999937057495 3.7758901342749596 14.004300087690353 10.232499986886978 -1.8740299344062805 -8.98193009197712 2.8269098326563835 -3.955700062215328 11.277799755334854 0.9523919876664877 7.991250157356262 -18.02699938416481 3.6324499547481537 0.0 0.0 0.0 0.0 0.0 0.0 0.0 -5.115907697472721e-12 0.0 17.483400106430054 23.041299283504486 63.72150242328644 -27.626200318336487 -43.19919973611832 88.95980179309845 -2.9192398488521576 -42.611600160598755 -7.442519813776016 -1.871782728812832e-09 -1.3454837244353257e-09 -6.957634468562901e-10 -3.2038371955422917e-09 -2.3737811716273427e-09 -1.2585132935782894e-09 -1.871782728812832e-09 -1.3454837244353257e-09 -6.957634468562901e-10 7.7309102565050125 5.474880114197731 0.41731400415301323 -1.871782728812832e-09 -1.3454837244353257e-09 -6.957634468562901e-10 2.905540131032467 0.9651830233633518 0.102901995414868 -1.871782728812832e-09 -1.3454837244353257e-09 -6.957634468562901e-10 10.27859978377819 0.7318009994924068 0.025912300043273717 -1.871782728812832e-09 -1.3454837244353257e-09 -6.957634468562901e-10 2.221670038998127 -0.733487019315362 -0.2089200052432716 0.0 -5.115907697472721e-12 0.0 -41.60700023174286 31.96670114994049 -54.185197949409485 28.730100989341736 -34.82259929180145 -75.26510238647461 0.6820389814674854 22.369299978017807 -3.3226098865270615 -3.318945118735428e-10 -3.785771696129814e-10 2.9672264645341784e-10 -5.659472890329198e-10 -6.548361852765083e-10 5.218225851422176e-10 -3.318945118735428e-10 -3.785771696129814e-10 2.9672264645341784e-10 -7.7309102565050125 5.474880114197731 -0.41731400415301323 -3.318945118735428e-10 -3.785771696129814e-10 2.9672264645341784e-10 -2.905540131032467 0.9651830233633518 -0.102901995414868 -3.318945118735428e-10 -3.785771696129814e-10 2.9672264645341784e-10 -10.27859978377819 0.7318009994924068 -0.025912300043273717 -3.318945118735428e-10 -3.785771696129814e-10 2.9672264645341784e-10 -2.221670038998127 -0.733487019315362 0.2089200052432716 0.0 0.0 0.0 -3.166240118443966 -19.740999341011047 -14.280200153589249 -0.8137460052967072 55.83779811859131 1.3826499972492456 -11.081399694085121 -11.62039965391159 -26.922098994255066 0.0 0.0 0.0 23.02730083465576 -51.77610218524933 12.058600187301636 0.3893909929320216 38.030800223350525 0.10140299680642784 0.5055399890989065 25.82909882068634 -0.5799940042197704
